<svg xmlns="http://www.w3.org/2000/svg" id="canvas" viewBox="252.642 387.114 1105.748 198.605"><path d="M 330.29,400.76 C 329.60 400.81, 329.21 400.98, 327.83 401.96 C 326.44 402.94, 325.56 403.49, 323.37 405.65 C 321.17 407.81, 320.04 409.38, 316.85 412.76 C 313.66 416.14, 311.61 418.21, 307.41 422.54 C 303.22 426.88, 300.64 429.41, 295.87 434.45 C 291.09 439.50, 288.27 442.28, 283.55 447.79 C 278.83 453.30, 276.31 456.46, 272.26 462.00 C 268.22 467.54, 266.26 470.39, 263.34 475.48 C 260.41 480.58, 259.17 483.13, 257.64 487.46 C 256.11 491.80, 255.45 493.84, 255.69 497.17 C 255.92 500.49, 256.61 502.14, 258.79 504.08 C 260.97 506.02, 262.83 506.52, 266.58 506.87 C 270.33 507.22, 272.66 506.79, 277.55 505.82 C 282.44 504.85, 285.46 503.88, 291.05 502.01 C 296.65 500.13, 299.97 498.69, 305.53 496.45 C 311.08 494.20, 314.10 492.85, 318.81 490.79 C 323.53 488.72, 326.04 487.80, 329.11 486.12 C 332.17 484.44, 333.37 483.51, 334.14 482.39 C 334.92 481.26, 334.43 480.61, 332.99 480.50 C 331.54 480.39, 329.96 480.61, 326.92 481.84 C 323.88 483.08, 321.84 484.44, 317.79 486.67 C 313.73 488.90, 311.17 490.40, 306.66 492.98 C 302.15 495.57, 299.53 497.03, 295.24 499.59 C 290.95 502.15, 288.74 503.54, 285.22 505.80 C 281.71 508.06, 279.94 508.92, 277.66 510.89 C 275.38 512.85, 274.63 513.86, 273.82 515.64 C 273.01 517.42, 272.90 518.42, 273.62 519.78 C 274.34 521.14, 275.25 521.88, 277.44 522.44 C 279.62 523.01, 281.18 523.13, 284.55 522.61 C 287.91 522.09, 289.98 521.38, 294.25 519.85 C 298.52 518.33, 300.93 517.30, 305.90 514.99 C 310.87 512.68, 313.69 511.28, 319.09 508.32 C 324.50 505.37, 327.54 503.61, 332.94 500.22 C 338.33 496.83, 341.08 494.88, 346.08 491.37 C 351.07 487.85, 353.56 485.94, 357.90 482.65 C 362.24 479.35, 364.33 477.60, 367.78 474.88 C 371.24 472.16, 372.87 471.01, 375.16 469.07 C 377.45 467.12, 378.26 466.28, 379.23 465.13 C 380.19 463.99, 380.19 463.43, 379.98 463.34 C 379.78 463.24, 379.09 463.54, 378.20 464.65 C 377.31 465.76, 376.61 466.77, 375.54 468.90 C 374.47 471.03, 373.92 472.60, 372.85 475.30 C 371.78 478.01, 371.06 479.74, 370.20 482.43 C 369.33 485.12, 368.81 486.53, 368.51 488.76 C 368.21 490.99, 368.10 492.11, 368.70 493.58 C 369.30 495.05, 369.84 495.72, 371.49 496.12 C 373.14 496.52, 374.32 496.55, 376.95 495.58 C 379.57 494.61, 381.10 493.35, 384.62 491.27 C 388.14 489.19, 390.40 487.64, 394.56 485.19 C 398.72 482.75, 401.26 481.20, 405.42 479.05 C 409.59 476.90, 412.09 475.73, 415.39 474.44 C 418.69 473.16, 420.15 472.88, 421.93 472.63 C 423.70 472.37, 424.00 472.37, 424.26 473.17 C 424.51 473.97, 423.80 474.87, 423.19 476.62 C 422.58 478.37, 421.76 479.71, 421.20 481.91 C 420.64 484.11, 420.31 485.39, 420.39 487.63 C 420.48 489.88, 420.57 491.24, 421.63 493.15 C 422.69 495.07, 423.48 496.11, 425.69 497.19 C 427.90 498.27, 429.42 498.60, 432.68 498.56 C 435.94 498.51, 437.86 497.94, 441.98 496.96 C 446.11 495.99, 448.45 495.25, 453.30 493.68 C 458.15 492.11, 461.00 491.07, 466.25 489.12 C 471.50 487.17, 474.36 485.86, 479.54 483.92 C 484.72 481.98, 487.47 480.95, 492.16 479.43 C 496.84 477.92, 499.16 477.28, 502.95 476.33 C 506.75 475.38, 508.49 475.22, 511.12 474.69 C 513.75 474.15, 514.71 474.02, 516.10 473.64 C 517.49 473.26, 517.79 473.19, 518.06 472.80 C 518.33 472.42, 518.17 471.98, 517.45 471.71 C 516.74 471.44, 515.92 471.18, 514.46 471.44 C 513.00 471.71, 512.16 472.16, 510.14 473.03 C 508.12 473.90, 506.96 474.38, 504.37 475.80 C 501.78 477.21, 500.16 478.13, 497.18 480.11 C 494.20 482.08, 492.45 483.36, 489.48 485.69 C 486.50 488.02, 484.85 489.37, 482.32 491.75 C 479.78 494.13, 478.36 495.31, 476.81 497.59 C 475.25 499.86, 474.82 501.14, 474.55 503.12 C 474.28 505.11, 474.40 506.17, 475.44 507.51 C 476.49 508.86, 477.52 509.55, 479.78 509.85 C 482.04 510.15, 483.55 510.10, 486.75 509.02 C 489.94 507.94, 491.72 506.87, 495.77 504.46 C 499.81 502.05, 502.15 500.57, 506.99 496.98 C 511.83 493.38, 514.64 491.20, 519.96 486.50 C 525.27 481.80, 528.12 478.90, 533.57 473.49 C 539.03 468.08, 542.08 465.07, 547.22 459.45 C 552.36 453.84, 554.85 450.79, 559.29 445.41 C 563.73 440.04, 565.83 437.22, 569.41 432.57 C 572.98 427.92, 575.15 425.60, 577.18 422.17 C 579.21 418.73, 579.79 417.01, 579.55 415.40 C 579.30 413.78, 578.07 413.18, 575.95 414.10 C 573.82 415.01, 572.28 416.55, 568.91 419.97 C 565.55 423.38, 563.14 426.11, 559.14 431.17 C 555.14 436.24, 552.71 439.43, 548.93 445.28 C 545.15 451.13, 543.21 454.53, 540.22 460.41 C 537.23 466.29, 535.77 469.41, 533.98 474.69 C 532.20 479.98, 531.48 482.53, 531.28 486.82 C 531.08 491.12, 531.35 493.20, 532.98 496.17 C 534.61 499.14, 536.15 500.52, 539.42 501.68 C 542.68 502.83, 544.81 502.80, 549.29 501.96 C 553.76 501.13, 556.26 500.06, 561.78 497.49 C 567.30 494.92, 570.53 493.18, 576.89 489.13 C 583.26 485.08, 586.89 482.52, 593.61 477.24 C 600.32 471.97, 603.92 468.73, 610.47 462.74 C 617.03 456.75, 620.56 453.33, 626.40 447.30 C 632.23 441.27, 635.16 438.03, 639.63 432.58 C 644.09 427.14, 646.07 424.44, 648.72 420.07 C 651.38 415.70, 652.44 413.77, 652.91 410.72 C 653.38 407.66, 652.79 406.18, 651.07 404.80 C 649.36 403.43, 647.69 403.08, 644.34 403.86 C 640.99 404.64, 638.73 405.85, 634.33 408.70 C 629.93 411.55, 627.29 413.65, 622.36 418.12 C 617.43 422.59, 614.45 425.52, 609.67 431.06 C 604.89 436.61, 602.31 439.83, 598.46 445.84 C 594.61 451.84, 592.85 455.27, 590.42 461.07 C 588.00 466.88, 587.06 469.79, 586.34 474.86 C 585.62 479.93, 585.78 482.37, 586.83 486.44 C 587.88 490.51, 588.89 492.45, 591.60 495.22 C 594.32 497.98, 596.35 499.00, 600.39 500.27 C 604.43 501.53, 606.90 501.71, 611.82 501.54 C 616.74 501.38, 619.63 500.92, 625.00 499.46 C 630.37 498.01, 633.36 496.78, 638.66 494.28 C 643.97 491.77, 646.82 490.00, 651.53 486.96 C 656.25 483.91, 658.73 482.07, 662.24 479.04 C 665.75 476.02, 667.37 474.49, 669.06 471.85 C 670.76 469.21, 671.03 467.77, 670.71 465.83 C 670.39 463.89, 669.59 462.85, 667.47 462.13 C 665.34 461.42, 663.31 461.43, 660.08 462.27 C 656.84 463.10, 654.83 464.24, 651.31 466.32 C 647.78 468.39, 645.71 469.78, 642.46 472.63 C 639.22 475.48, 637.43 477.35, 635.08 480.56 C 632.72 483.76, 631.58 485.56, 630.70 488.66 C 629.83 491.77, 629.76 493.52, 630.70 496.09 C 631.63 498.67, 632.74 500.04, 635.37 501.54 C 638.00 503.04, 639.87 503.35, 643.83 503.58 C 647.79 503.80, 650.09 503.53, 655.17 502.67 C 660.26 501.80, 663.30 501.05, 669.26 499.26 C 675.21 497.47, 678.56 496.20, 684.97 493.72 C 691.37 491.24, 694.90 489.64, 701.26 486.86 C 707.62 484.07, 711.11 482.31, 716.76 479.80 C 722.41 477.29, 725.20 475.97, 729.52 474.30 C 733.85 472.63, 735.75 472.25, 738.39 471.44 C 741.03 470.62, 741.74 470.24, 742.74 470.24 C 743.75 470.24, 743.68 470.57, 743.43 471.44 C 743.19 472.30, 742.55 472.96, 741.51 474.55 C 740.47 476.14, 739.57 477.17, 738.23 479.38 C 736.88 481.59, 736.11 483.19, 734.77 485.60 C 733.43 488.01, 732.77 489.25, 731.52 491.44 C 730.27 493.63, 729.66 494.75, 728.53 496.55 C 727.39 498.36, 726.96 499.12, 725.84 500.45 C 724.72 501.77, 724.13 502.17, 722.92 503.16 C 721.71 504.15, 720.91 504.57, 719.80 505.40 C 718.68 506.23, 718.16 506.62, 717.36 507.30 C 716.57 507.98, 716.23 508.15, 715.83 508.78 C 715.43 509.41, 715.27 509.76, 715.36 510.46 C 715.46 511.15, 715.63 511.73, 716.31 512.27 C 716.99 512.81, 717.38 512.98, 718.75 513.17 C 720.12 513.36, 720.94 513.38, 723.15 513.23 C 725.36 513.07, 726.71 512.99, 729.80 512.38 C 732.89 511.76, 734.70 511.27, 738.60 510.15 C 742.49 509.02, 744.74 508.38, 749.28 506.75 C 753.82 505.12, 756.28 504.10, 761.30 502.00 C 766.32 499.90, 769.06 498.66, 774.38 496.23 C 779.70 493.79, 782.57 492.40, 787.90 489.83 C 793.23 487.26, 795.95 485.83, 801.03 483.39 C 806.11 480.95, 808.71 479.67, 813.31 477.62 C 817.90 475.57, 820.16 474.54, 824.00 473.14 C 827.83 471.74, 829.53 471.29, 832.47 470.64 C 835.42 469.98, 836.69 469.80, 838.72 469.86 C 840.76 469.91, 841.48 470.12, 842.64 470.91 C 843.80 471.71, 844.05 472.31, 844.54 473.84 C 845.03 475.37, 845.12 476.35, 845.08 478.56 C 845.05 480.77, 844.91 482.19, 844.38 484.89 C 843.84 487.60, 843.58 489.24, 842.41 492.09 C 841.24 494.94, 840.47 496.42, 838.50 499.16 C 836.54 501.91, 835.28 503.36, 832.60 505.82 C 829.92 508.28, 828.34 509.48, 825.10 511.45 C 821.86 513.42, 819.86 514.29, 816.40 515.67 C 812.94 517.05, 810.97 517.63, 807.80 518.35 C 804.62 519.07, 802.95 518.99, 800.54 519.27 C 798.12 519.54, 797.13 519.59, 795.71 519.72 C 794.29 519.85, 793.93 519.71, 793.43 519.93 C 792.94 520.15, 792.82 520.38, 793.23 520.81 C 793.64 521.23, 793.98 521.65, 795.49 522.06 C 797.01 522.46, 798.19 522.93, 800.81 522.82 C 803.42 522.71, 805.23 522.39, 808.57 521.51 C 811.92 520.63, 813.92 519.92, 817.52 518.41 C 821.13 516.90, 823.19 516.01, 826.61 513.94 C 830.02 511.87, 831.71 510.62, 834.61 508.04 C 837.50 505.47, 838.87 503.98, 841.09 501.08 C 843.30 498.18, 844.22 496.61, 845.68 493.55 C 847.14 490.48, 847.71 488.77, 848.39 485.75 C 849.07 482.73, 849.25 481.08, 849.08 478.45 C 848.91 475.82, 848.52 474.55, 847.54 472.58 C 846.56 470.61, 845.92 469.74, 844.18 468.60 C 842.45 467.46, 841.35 467.05, 838.87 466.88 C 836.39 466.72, 834.94 466.97, 831.79 467.77 C 828.64 468.57, 826.99 469.29, 823.12 470.87 C 819.25 472.46, 817.01 473.54, 812.43 475.70 C 807.84 477.85, 805.25 479.15, 800.18 481.63 C 795.11 484.11, 792.39 485.54, 787.06 488.10 C 781.74 490.65, 778.88 492.03, 773.56 494.41 C 768.24 496.79, 765.49 497.99, 760.48 499.98 C 755.46 501.97, 753.00 502.93, 748.48 504.36 C 743.95 505.79, 741.71 506.35, 737.85 507.14 C 733.99 507.93, 732.19 508.02, 729.19 508.32 C 726.19 508.62, 724.93 508.53, 722.85 508.65 C 720.76 508.78, 719.94 508.76, 718.75 508.95 C 717.56 509.14, 717.35 509.31, 716.90 509.61 C 716.45 509.90, 716.44 510.15, 716.52 510.42 C 716.60 510.68, 716.74 510.95, 717.31 510.92 C 717.87 510.88, 718.40 510.73, 719.35 510.22 C 720.29 509.72, 720.85 509.27, 722.02 508.40 C 723.20 507.53, 723.95 507.00, 725.23 505.86 C 726.52 504.71, 727.17 504.12, 728.44 502.67 C 729.70 501.21, 730.25 500.40, 731.54 498.57 C 732.84 496.74, 733.50 495.66, 734.91 493.52 C 736.32 491.38, 737.10 490.22, 738.59 487.88 C 740.08 485.53, 741.05 484.12, 742.35 481.78 C 743.65 479.44, 744.43 478.28, 745.08 476.18 C 745.72 474.09, 745.97 472.85, 745.57 471.31 C 745.17 469.76, 744.69 468.97, 743.10 468.45 C 741.51 467.94, 740.49 467.95, 737.61 468.73 C 734.73 469.50, 733.03 470.43, 728.71 472.32 C 724.39 474.20, 721.64 475.55, 716.02 478.15 C 710.39 480.75, 706.92 482.51, 700.58 485.30 C 694.24 488.09, 690.71 489.67, 684.34 492.08 C 677.96 494.49, 674.61 495.70, 668.70 497.34 C 662.80 498.98, 659.74 499.63, 654.81 500.29 C 649.88 500.95, 647.62 500.97, 644.04 500.65 C 640.46 500.33, 639.06 499.80, 636.92 498.70 C 634.79 497.59, 633.99 496.97, 633.36 495.14 C 632.73 493.32, 632.94 492.15, 633.76 489.58 C 634.58 487.01, 635.35 485.25, 637.48 482.30 C 639.60 479.36, 641.30 477.49, 644.40 474.87 C 647.49 472.26, 649.59 471.01, 652.94 469.22 C 656.29 467.43, 658.33 466.83, 661.13 465.92 C 663.94 465.02, 665.43 464.68, 666.96 464.69 C 668.49 464.71, 668.85 464.89, 668.79 465.99 C 668.73 467.10, 668.28 467.96, 666.65 470.22 C 665.03 472.48, 663.93 474.28, 660.67 477.28 C 657.42 480.28, 654.97 482.18, 650.39 485.21 C 645.82 488.24, 642.99 490.00, 637.80 492.44 C 632.61 494.87, 629.65 496.03, 624.44 497.39 C 619.24 498.74, 616.42 499.10, 611.75 499.20 C 607.09 499.30, 604.82 499.03, 601.13 497.89 C 597.45 496.75, 595.77 495.90, 593.33 493.49 C 590.90 491.09, 589.98 489.55, 588.96 485.87 C 587.94 482.20, 587.64 479.94, 588.25 475.11 C 588.86 470.29, 589.69 467.41, 592.01 461.73 C 594.32 456.05, 596.04 452.63, 599.83 446.72 C 603.62 440.81, 606.19 437.60, 610.96 432.18 C 615.73 426.76, 618.74 423.88, 623.68 419.60 C 628.61 415.33, 631.36 413.38, 635.64 410.79 C 639.93 408.20, 642.23 407.57, 645.10 406.66 C 647.97 405.75, 648.91 405.52, 650.00 406.25 C 651.08 406.97, 651.11 407.70, 650.53 410.27 C 649.95 412.85, 649.52 414.85, 647.11 419.12 C 644.69 423.39, 642.79 426.18, 638.45 431.63 C 634.11 437.08, 631.19 440.34, 625.42 446.36 C 619.65 452.39, 616.12 455.81, 609.58 461.76 C 603.04 467.71, 599.44 470.93, 592.73 476.12 C 586.02 481.31, 582.37 483.82, 576.02 487.73 C 569.67 491.64, 566.39 493.29, 560.96 495.66 C 555.53 498.03, 553.00 498.88, 548.86 499.58 C 544.73 500.28, 543.02 500.09, 540.29 499.16 C 537.56 498.24, 536.56 497.40, 535.20 494.95 C 533.84 492.50, 533.36 490.84, 533.48 486.91 C 533.60 482.98, 534.13 480.43, 535.79 475.29 C 537.45 470.15, 538.85 467.00, 541.79 461.20 C 544.72 455.40, 546.64 452.01, 550.46 446.28 C 554.28 440.56, 556.79 437.46, 560.87 432.58 C 564.94 427.69, 567.59 425.18, 570.84 421.86 C 574.09 418.54, 575.65 417.31, 577.12 416.00 C 578.60 414.69, 578.61 414.34, 578.22 415.32 C 577.82 416.31, 577.21 417.70, 575.15 420.93 C 573.10 424.16, 571.36 426.78, 567.94 431.48 C 564.53 436.18, 562.44 439.03, 558.08 444.42 C 553.71 449.81, 551.23 452.84, 546.11 458.43 C 540.99 464.03, 537.94 467.03, 532.48 472.38 C 527.02 477.73, 524.16 480.61, 518.82 485.19 C 513.48 489.78, 510.65 491.91, 505.77 495.28 C 500.90 498.66, 498.49 500.04, 494.46 502.09 C 490.43 504.13, 488.52 504.63, 485.62 505.52 C 482.71 506.40, 481.63 506.42, 479.94 506.53 C 478.25 506.64, 477.71 506.63, 477.16 506.07 C 476.62 505.52, 476.72 505.04, 477.22 503.76 C 477.73 502.48, 478.21 501.59, 479.69 499.68 C 481.18 497.77, 482.29 496.49, 484.66 494.21 C 487.02 491.94, 488.62 490.52, 491.51 488.31 C 494.39 486.10, 496.12 484.88, 499.08 483.16 C 502.04 481.44, 503.73 480.86, 506.31 479.70 C 508.90 478.53, 510.07 478.18, 512.01 477.34 C 513.95 476.50, 514.75 476.24, 515.99 475.48 C 517.22 474.73, 517.74 474.30, 518.18 473.57 C 518.62 472.85, 518.67 472.36, 518.20 471.86 C 517.73 471.36, 517.38 471.14, 515.83 471.07 C 514.29 471.00, 513.18 470.95, 510.47 471.51 C 507.75 472.06, 506.07 472.69, 502.27 473.86 C 498.46 475.02, 496.15 475.72, 491.46 477.34 C 486.76 478.96, 484.00 480.01, 478.81 481.95 C 473.62 483.90, 470.75 485.20, 465.50 487.07 C 460.26 488.95, 457.41 489.94, 452.58 491.33 C 447.76 492.73, 445.37 493.35, 441.38 494.05 C 437.39 494.76, 435.51 494.84, 432.64 494.86 C 429.78 494.87, 428.69 494.75, 427.05 494.12 C 425.42 493.49, 425.04 492.98, 424.49 491.71 C 423.93 490.44, 424.06 489.51, 424.28 487.77 C 424.51 486.02, 425.10 485.10, 425.60 483.00 C 426.10 480.89, 426.73 479.41, 426.80 477.25 C 426.87 475.10, 426.94 473.66, 425.95 472.22 C 424.95 470.79, 424.15 470.18, 421.83 470.07 C 419.51 469.97, 417.87 470.38, 414.35 471.70 C 410.82 473.03, 408.44 474.49, 404.21 476.70 C 399.98 478.92, 397.43 480.46, 393.19 482.78 C 388.95 485.10, 386.56 486.49, 382.99 488.30 C 379.43 490.12, 377.64 490.74, 375.37 491.83 C 373.09 492.93, 372.52 493.53, 371.63 493.79 C 370.74 494.04, 370.82 493.92, 370.91 493.09 C 371.00 492.26, 371.39 491.46, 372.09 489.64 C 372.78 487.81, 373.33 486.47, 374.37 483.97 C 375.42 481.47, 376.18 479.79, 377.32 477.15 C 378.45 474.51, 379.28 473.07, 380.05 470.78 C 380.83 468.49, 381.12 467.29, 381.18 465.70 C 381.24 464.12, 381.05 463.34, 380.36 462.86 C 379.68 462.38, 379.20 462.53, 377.77 463.31 C 376.33 464.09, 375.48 464.79, 373.18 466.74 C 370.89 468.70, 369.60 470.22, 366.30 473.09 C 363.00 475.95, 360.95 477.73, 356.69 481.08 C 352.43 484.44, 349.96 486.35, 345.02 489.87 C 340.07 493.39, 337.33 495.32, 331.96 498.67 C 326.59 502.01, 323.56 503.74, 318.16 506.59 C 312.77 509.44, 309.93 510.81, 304.98 512.92 C 300.02 515.02, 297.57 515.94, 293.38 517.13 C 289.18 518.31, 287.10 518.45, 284.01 518.85 C 280.92 519.24, 279.68 519.13, 277.92 519.13 C 276.16 519.12, 275.59 519.26, 275.19 518.81 C 274.79 518.36, 275.02 517.99, 275.92 516.89 C 276.83 515.79, 277.56 515.10, 279.71 513.31 C 281.86 511.52, 283.31 510.28, 286.66 507.95 C 290.01 505.61, 292.22 504.18, 296.46 501.63 C 300.70 499.07, 303.32 497.61, 307.88 495.18 C 312.43 492.75, 315.11 491.46, 319.23 489.48 C 323.36 487.50, 325.64 486.75, 328.50 485.29 C 331.35 483.83, 332.54 483.01, 333.49 482.19 C 334.44 481.37, 334.40 480.90, 333.26 481.18 C 332.12 481.46, 330.87 482.09, 327.80 483.61 C 324.73 485.13, 322.51 486.59, 317.90 488.77 C 313.29 490.96, 310.26 492.31, 304.75 494.54 C 299.25 496.77, 295.91 498.17, 290.37 499.93 C 284.84 501.70, 281.80 502.54, 277.09 503.36 C 272.38 504.19, 270.14 504.32, 266.82 504.06 C 263.50 503.81, 262.22 503.51, 260.50 502.09 C 258.79 500.68, 258.42 499.79, 258.25 497.00 C 258.08 494.21, 258.33 492.28, 259.66 488.15 C 261.00 484.02, 262.12 481.41, 264.91 476.37 C 267.70 471.34, 269.62 468.47, 273.60 462.97 C 277.57 457.47, 280.08 454.32, 284.79 448.86 C 289.50 443.40, 292.33 440.65, 297.15 435.69 C 301.98 430.72, 304.58 428.23, 308.91 424.05 C 313.24 419.86, 315.37 417.88, 318.81 414.77 C 322.25 411.66, 323.87 410.60, 326.11 408.50 C 328.35 406.39, 328.98 405.57, 330.01 404.22 C 331.04 402.87, 331.20 402.43, 331.26 401.74 C 331.31 401.05, 330.97 400.72, 330.29 400.76" style="stroke: black; fill: black;"/><path d="M 1013.98,451.53 C 1015.16 451.24, 1016.70 450.50, 1018.83 448.78 C 1020.96 447.05, 1022.08 445.59, 1024.61 442.91 C 1027.14 440.23, 1028.75 438.47, 1031.48 435.37 C 1034.20 432.28, 1035.57 430.65, 1038.23 427.43 C 1040.90 424.21, 1042.41 422.52, 1044.81 419.25 C 1047.20 415.99, 1048.37 414.24, 1050.20 411.09 C 1052.04 407.94, 1052.95 406.35, 1053.97 403.51 C 1055.00 400.67, 1055.37 399.17, 1055.31 396.88 C 1055.25 394.58, 1054.94 393.37, 1053.67 392.03 C 1052.40 390.69, 1051.31 389.91, 1048.96 390.16 C 1046.62 390.42, 1045.21 391.01, 1041.96 393.31 C 1038.71 395.61, 1036.90 397.38, 1032.72 401.67 C 1028.54 405.95, 1026.05 408.65, 1021.06 414.75 C 1016.07 420.85, 1013.26 424.51, 1007.77 432.15 C 1002.28 439.79, 999.31 444.17, 993.62 452.94 C 987.94 461.72, 985.05 466.54, 979.34 476.03 C 973.62 485.51, 970.71 490.65, 965.05 500.35 C 959.38 510.05, 956.40 515.24, 951.01 524.54 C 945.61 533.84, 942.88 538.78, 938.07 546.85 C 933.26 554.92, 930.82 558.91, 926.96 564.89 C 923.11 570.87, 921.28 573.40, 918.80 576.75 C 916.32 580.10, 915.41 581.14, 914.57 581.62 C 913.73 582.09, 914.25 581.53, 914.62 579.12 C 914.98 576.72, 915.36 574.33, 916.41 569.59 C 917.45 564.85, 918.16 561.34, 919.85 555.44 C 921.54 549.54, 922.76 546.02, 924.87 540.08 C 926.98 534.13, 928.21 530.99, 930.40 525.71 C 932.59 520.43, 933.72 517.83, 935.83 513.69 C 937.94 509.56, 938.95 507.70, 940.94 505.05 C 942.92 502.41, 943.67 501.63, 945.75 500.48 C 947.82 499.32, 948.60 499.45, 951.29 499.29 C 953.99 499.13, 955.45 499.48, 959.24 499.68 C 963.04 499.89, 965.34 500.26, 970.28 500.30 C 975.23 500.33, 978.18 500.36, 983.98 499.85 C 989.78 499.34, 992.96 498.95, 999.28 497.73 C 1005.60 496.51, 1009.00 495.61, 1015.58 493.75 C 1022.16 491.89, 1025.83 490.65, 1032.19 488.42 C 1038.55 486.19, 1041.87 484.85, 1047.38 482.58 C 1052.90 480.32, 1055.69 479.13, 1059.76 477.09 C 1063.82 475.05, 1065.99 474.06, 1067.71 472.37 C 1069.43 470.67, 1069.42 469.35, 1068.37 468.60 C 1067.33 467.85, 1065.64 467.63, 1062.47 468.61 C 1059.31 469.58, 1056.93 470.96, 1052.55 473.48 C 1048.16 475.99, 1045.14 477.87, 1040.56 481.18 C 1035.98 484.50, 1033.29 486.62, 1029.64 490.06 C 1026.00 493.50, 1024.21 495.24, 1022.34 498.38 C 1020.46 501.53, 1019.99 503.26, 1020.27 505.80 C 1020.54 508.34, 1021.48 509.68, 1023.70 511.08 C 1025.92 512.47, 1027.81 512.80, 1031.36 512.79 C 1034.91 512.77, 1037.19 512.21, 1041.44 510.99 C 1045.69 509.77, 1048.32 508.80, 1052.63 506.70 C 1056.93 504.60, 1059.30 503.13, 1062.96 500.49 C 1066.63 497.84, 1068.45 496.22, 1070.96 493.45 C 1073.47 490.68, 1074.51 489.19, 1075.51 486.64 C 1076.51 484.09, 1076.30 482.76, 1075.96 480.69 C 1075.61 478.62, 1074.81 477.66, 1073.79 476.30 C 1072.76 474.95, 1071.74 474.38, 1070.82 473.92 C 1069.90 473.45, 1069.13 473.79, 1069.19 473.97 C 1069.25 474.15, 1069.53 474.67, 1071.12 474.81 C 1072.72 474.95, 1074.05 474.93, 1077.16 474.66 C 1080.26 474.38, 1082.35 473.91, 1086.65 473.45 C 1090.95 472.99, 1093.73 472.73, 1098.64 472.35 C 1103.55 471.97, 1106.41 471.73, 1111.20 471.54 C 1115.99 471.35, 1118.65 471.14, 1122.61 471.38 C 1126.58 471.62, 1128.54 471.99, 1131.02 472.73 C 1133.50 473.47, 1134.37 473.76, 1135.02 475.06 C 1135.66 476.37, 1135.31 477.07, 1134.25 479.26 C 1133.20 481.46, 1132.13 483.10, 1129.73 486.05 C 1127.33 489.01, 1125.40 491.02, 1122.26 494.04 C 1119.11 497.07, 1116.94 498.66, 1114.01 501.18 C 1111.09 503.71, 1109.24 504.83, 1107.63 506.67 C 1106.01 508.50, 1105.71 509.46, 1105.92 510.36 C 1106.14 511.25, 1106.85 511.60, 1108.70 511.15 C 1110.55 510.71, 1111.96 509.77, 1115.16 508.13 C 1118.36 506.50, 1120.37 505.17, 1124.71 502.98 C 1129.05 500.78, 1131.73 499.55, 1136.87 497.15 C 1142.01 494.76, 1145.02 493.30, 1150.40 491.00 C 1155.79 488.69, 1158.70 487.53, 1163.78 485.64 C 1168.86 483.74, 1171.47 482.84, 1175.81 481.54 C 1180.15 480.25, 1182.51 479.81, 1185.47 479.17 C 1188.43 478.53, 1189.52 478.27, 1190.60 478.35 C 1191.69 478.43, 1191.42 478.63, 1190.89 479.58 C 1190.37 480.54, 1189.49 481.27, 1187.98 483.12 C 1186.47 484.97, 1185.32 486.44, 1183.36 488.84 C 1181.40 491.25, 1179.92 492.76, 1178.19 495.16 C 1176.46 497.56, 1175.43 498.89, 1174.71 500.85 C 1174.00 502.81, 1173.91 503.83, 1174.61 504.96 C 1175.31 506.09, 1176.09 506.62, 1178.22 506.50 C 1180.36 506.38, 1181.85 505.71, 1185.27 504.36 C 1188.69 503.01, 1191.01 501.75, 1195.33 499.76 C 1199.65 497.76, 1202.27 496.37, 1206.88 494.37 C 1211.49 492.37, 1214.46 491.22, 1218.40 489.74 C 1222.34 488.26, 1224.49 487.73, 1226.59 486.97 C 1228.69 486.21, 1229.09 485.83, 1228.90 485.95 C 1228.72 486.08, 1227.66 486.31, 1225.67 487.60 C 1223.67 488.89, 1221.77 490.30, 1218.91 492.40 C 1216.06 494.50, 1213.81 495.87, 1211.37 498.10 C 1208.93 500.32, 1207.56 501.67, 1206.71 503.52 C 1205.87 505.37, 1205.87 506.49, 1207.14 507.34 C 1208.41 508.19, 1209.91 508.39, 1213.06 507.77 C 1216.21 507.15, 1218.37 505.91, 1222.90 504.24 C 1227.43 502.58, 1230.35 501.34, 1235.69 499.46 C 1241.04 497.58, 1244.37 496.46, 1249.63 494.86 C 1254.89 493.25, 1257.79 492.37, 1261.99 491.44 C 1266.19 490.50, 1268.21 490.41, 1270.62 490.17 C 1273.02 489.94, 1273.64 489.87, 1274.02 490.27 C 1274.41 490.68, 1273.71 491.02, 1272.56 492.21 C 1271.40 493.40, 1270.04 494.28, 1268.24 496.22 C 1266.44 498.17, 1265.08 499.64, 1263.55 501.94 C 1262.02 504.24, 1261.16 505.53, 1260.58 507.72 C 1260.00 509.90, 1259.87 511.09, 1260.66 512.86 C 1261.45 514.63, 1262.21 515.67, 1264.53 516.57 C 1266.85 517.46, 1268.56 517.57, 1272.25 517.33 C 1275.94 517.09, 1278.27 516.50, 1282.99 515.35 C 1287.70 514.20, 1290.44 513.40, 1295.83 511.58 C 1301.22 509.76, 1304.31 508.53, 1309.94 506.26 C 1315.56 503.99, 1318.66 502.58, 1323.96 500.23 C 1329.27 497.89, 1331.95 496.55, 1336.47 494.54 C 1341.00 492.53, 1343.26 491.63, 1346.59 490.19 C 1349.92 488.74, 1351.39 488.29, 1353.11 487.31 C 1354.83 486.33, 1355.10 485.83, 1355.19 485.30 C 1355.28 484.77, 1354.71 484.53, 1353.56 484.65 C 1352.41 484.77, 1351.22 484.93, 1349.42 485.90 C 1347.62 486.87, 1346.37 487.75, 1344.56 489.51 C 1342.75 491.27, 1341.82 492.45, 1340.37 494.70 C 1338.93 496.95, 1338.25 498.18, 1337.33 500.74 C 1336.41 503.30, 1336.10 504.70, 1335.76 507.49 C 1335.41 510.29, 1335.52 511.84, 1335.59 514.71 C 1335.66 517.58, 1335.95 519.15, 1336.11 521.86 C 1336.26 524.57, 1336.43 525.86, 1336.37 528.27 C 1336.31 530.68, 1336.25 531.81, 1335.80 533.93 C 1335.34 536.04, 1335.05 537.11, 1334.11 538.86 C 1333.17 540.61, 1332.60 541.36, 1331.10 542.66 C 1329.60 543.97, 1328.65 544.47, 1326.63 545.37 C 1324.62 546.27, 1323.30 546.62, 1321.01 547.16 C 1318.72 547.70, 1317.43 547.87, 1315.18 548.09 C 1312.93 548.30, 1311.76 548.26, 1309.76 548.22 C 1307.76 548.18, 1306.77 547.96, 1305.18 547.90 C 1303.58 547.84, 1302.52 547.64, 1301.77 547.92 C 1301.02 548.20, 1300.85 548.68, 1301.42 549.29 C 1301.98 549.91, 1302.97 550.44, 1304.59 550.99 C 1306.22 551.54, 1307.35 551.82, 1309.53 552.04 C 1311.71 552.25, 1313.02 552.23, 1315.51 552.05 C 1318.00 551.87, 1319.41 551.76, 1321.97 551.13 C 1324.53 550.51, 1326.00 550.07, 1328.31 548.92 C 1330.63 547.76, 1331.75 547.04, 1333.55 545.38 C 1335.34 543.71, 1336.12 542.71, 1337.28 540.57 C 1338.44 538.44, 1338.78 537.15, 1339.34 534.72 C 1339.91 532.29, 1339.96 531.04, 1340.11 528.43 C 1340.26 525.82, 1340.19 524.44, 1340.10 521.68 C 1340.00 518.91, 1339.73 517.34, 1339.63 514.59 C 1339.54 511.84, 1339.37 510.44, 1339.63 507.94 C 1339.89 505.44, 1340.12 504.25, 1340.94 502.08 C 1341.77 499.90, 1342.38 498.87, 1343.76 497.08 C 1345.15 495.29, 1346.20 494.58, 1347.88 493.12 C 1349.56 491.66, 1350.77 491.08, 1352.17 489.79 C 1353.57 488.49, 1354.31 487.67, 1354.88 486.65 C 1355.45 485.63, 1355.60 485.05, 1355.03 484.69 C 1354.47 484.34, 1353.95 484.26, 1352.04 484.86 C 1350.13 485.47, 1348.77 486.18, 1345.48 487.72 C 1342.18 489.26, 1340.02 490.42, 1335.56 492.56 C 1331.10 494.71, 1328.43 496.05, 1323.16 498.42 C 1317.89 500.79, 1314.80 502.20, 1309.20 504.41 C 1303.60 506.62, 1300.51 507.82, 1295.16 509.48 C 1289.80 511.15, 1287.03 511.84, 1282.42 512.72 C 1277.80 513.60, 1275.45 513.75, 1272.06 513.90 C 1268.68 514.04, 1267.34 513.84, 1265.50 513.44 C 1263.67 513.04, 1263.25 512.78, 1262.90 511.89 C 1262.54 511.01, 1262.82 510.43, 1263.73 509.01 C 1264.63 507.60, 1265.75 506.78, 1267.41 504.83 C 1269.07 502.87, 1270.47 501.47, 1272.01 499.24 C 1273.55 497.01, 1274.49 495.63, 1275.12 493.66 C 1275.75 491.69, 1276.09 490.64, 1275.17 489.38 C 1274.25 488.12, 1273.28 487.42, 1270.53 487.34 C 1267.78 487.27, 1265.73 487.95, 1261.42 489.02 C 1257.11 490.10, 1254.28 491.09, 1248.98 492.72 C 1243.68 494.36, 1240.34 495.46, 1234.93 497.21 C 1229.53 498.96, 1226.50 500.05, 1221.96 501.48 C 1217.41 502.91, 1215.06 503.46, 1212.20 504.36 C 1209.33 505.25, 1208.32 505.80, 1207.64 505.96 C 1206.95 506.11, 1207.47 506.03, 1208.77 505.13 C 1210.07 504.24, 1211.60 503.35, 1214.15 501.48 C 1216.70 499.62, 1218.76 498.05, 1221.53 495.79 C 1224.31 493.54, 1226.38 492.21, 1228.03 490.21 C 1229.67 488.22, 1230.17 486.99, 1229.76 485.81 C 1229.36 484.62, 1228.46 484.02, 1225.99 484.28 C 1223.52 484.54, 1221.43 485.57, 1217.40 487.11 C 1213.38 488.65, 1210.50 490.00, 1205.85 491.99 C 1201.21 493.98, 1198.54 495.28, 1194.16 497.07 C 1189.77 498.85, 1187.24 499.64, 1183.93 500.93 C 1180.61 502.22, 1179.22 502.83, 1177.59 503.51 C 1175.96 504.19, 1175.80 504.53, 1175.78 504.33 C 1175.77 504.12, 1176.32 503.77, 1177.51 502.49 C 1178.69 501.21, 1179.81 500.10, 1181.70 497.94 C 1183.58 495.77, 1184.97 494.19, 1186.92 491.68 C 1188.88 489.17, 1190.26 487.73, 1191.48 485.39 C 1192.69 483.04, 1193.08 481.71, 1193.02 479.94 C 1192.95 478.17, 1192.77 477.28, 1191.15 476.54 C 1189.53 475.81, 1188.12 475.70, 1184.91 476.26 C 1181.70 476.81, 1179.47 477.83, 1175.10 479.32 C 1170.73 480.81, 1168.15 481.75, 1163.05 483.71 C 1157.95 485.67, 1155.03 486.84, 1149.61 489.13 C 1144.19 491.41, 1141.17 492.86, 1135.96 495.13 C 1130.74 497.39, 1128.01 498.50, 1123.52 500.45 C 1119.03 502.40, 1116.70 503.24, 1113.49 504.89 C 1110.29 506.54, 1108.90 507.58, 1107.51 508.71 C 1106.12 509.84, 1106.09 510.47, 1106.55 510.54 C 1107.00 510.60, 1107.88 510.42, 1109.79 509.03 C 1111.70 507.64, 1113.17 506.13, 1116.09 503.57 C 1119.00 501.01, 1121.13 499.33, 1124.36 496.23 C 1127.59 493.14, 1129.65 491.25, 1132.24 488.10 C 1134.83 484.95, 1136.33 483.31, 1137.30 480.50 C 1138.27 477.68, 1138.15 476.17, 1137.09 474.03 C 1136.03 471.90, 1134.87 470.88, 1132.00 469.82 C 1129.13 468.76, 1126.92 468.87, 1122.74 468.72 C 1118.56 468.57, 1115.95 468.86, 1111.10 469.07 C 1106.25 469.28, 1103.41 469.51, 1098.48 469.75 C 1093.55 470.00, 1090.76 470.16, 1086.43 470.29 C 1082.10 470.42, 1079.98 470.20, 1076.83 470.42 C 1073.67 470.63, 1072.39 470.78, 1070.66 471.37 C 1068.92 471.96, 1068.55 472.42, 1068.16 473.37 C 1067.77 474.32, 1068.11 475.10, 1068.72 476.10 C 1069.34 477.10, 1070.32 477.37, 1071.22 478.39 C 1072.12 479.40, 1072.95 479.77, 1073.24 481.19 C 1073.53 482.60, 1073.55 483.41, 1072.67 485.48 C 1071.78 487.55, 1071.05 488.95, 1068.80 491.53 C 1066.55 494.11, 1064.88 495.81, 1061.41 498.36 C 1057.95 500.92, 1055.63 502.35, 1051.48 504.30 C 1047.33 506.25, 1044.70 507.10, 1040.66 508.13 C 1036.63 509.16, 1034.42 509.36, 1031.29 509.47 C 1028.17 509.57, 1026.75 509.45, 1025.02 508.68 C 1023.29 507.90, 1022.73 507.38, 1022.65 505.60 C 1022.57 503.82, 1022.88 502.53, 1024.61 499.77 C 1026.34 497.01, 1027.82 495.11, 1031.29 491.79 C 1034.76 488.48, 1037.45 486.35, 1041.98 483.19 C 1046.51 480.03, 1049.62 478.32, 1053.95 476.00 C 1058.27 473.69, 1060.79 472.92, 1063.61 471.62 C 1066.44 470.33, 1067.53 469.75, 1068.06 469.52 C 1068.59 469.30, 1068.14 469.40, 1066.26 470.51 C 1064.39 471.61, 1062.62 472.97, 1058.70 475.05 C 1054.78 477.12, 1052.08 478.52, 1046.66 480.87 C 1041.25 483.23, 1037.93 484.56, 1031.62 486.81 C 1025.31 489.06, 1021.65 490.29, 1015.12 492.11 C 1008.58 493.94, 1005.21 494.81, 998.95 495.94 C 992.69 497.07, 989.54 497.39, 983.82 497.77 C 978.10 498.15, 975.22 498.01, 970.34 497.82 C 965.47 497.62, 963.30 497.11, 959.45 496.77 C 955.59 496.44, 954.09 495.89, 951.07 496.15 C 948.05 496.41, 946.78 496.59, 944.34 498.07 C 941.90 499.55, 940.95 500.60, 938.86 503.53 C 936.77 506.47, 935.94 508.45, 933.89 512.74 C 931.84 517.02, 930.78 519.64, 928.61 524.98 C 926.44 530.31, 925.23 533.46, 923.04 539.42 C 920.86 545.38, 919.52 548.87, 917.68 554.79 C 915.83 560.71, 914.94 564.16, 913.82 569.01 C 912.71 573.86, 911.89 576.31, 912.10 579.05 C 912.31 581.78, 913.23 582.92, 914.87 582.69 C 916.52 582.46, 917.65 581.30, 920.30 577.89 C 922.96 574.48, 924.40 571.72, 928.15 565.63 C 931.90 559.54, 934.31 555.55, 939.06 547.43 C 943.81 539.32, 946.53 534.38, 951.91 525.06 C 957.28 515.75, 960.25 510.56, 965.92 500.86 C 971.58 491.16, 974.49 486.02, 980.22 476.56 C 985.95 467.10, 988.85 462.29, 994.57 453.56 C 1000.29 444.83, 1003.27 440.47, 1008.82 432.92 C 1014.37 425.36, 1017.22 421.72, 1022.30 415.78 C 1027.38 409.84, 1029.96 407.21, 1034.23 403.21 C 1038.51 399.22, 1040.63 397.84, 1043.68 395.81 C 1046.72 393.77, 1047.82 393.50, 1049.48 393.05 C 1051.14 392.59, 1051.42 392.79, 1051.97 393.52 C 1052.53 394.26, 1052.51 394.97, 1052.25 396.73 C 1052.00 398.49, 1051.62 399.74, 1050.69 402.32 C 1049.75 404.90, 1049.20 406.56, 1047.57 409.62 C 1045.95 412.68, 1044.86 414.42, 1042.56 417.63 C 1040.27 420.83, 1038.77 422.51, 1036.11 425.65 C 1033.44 428.79, 1032.02 430.35, 1029.23 433.33 C 1026.44 436.30, 1024.72 437.96, 1022.15 440.52 C 1019.59 443.08, 1018.24 444.20, 1016.39 446.14 C 1014.55 448.09, 1013.41 449.18, 1012.93 450.26 C 1012.45 451.34, 1012.80 451.83, 1013.98 451.53" style="stroke: black; fill: black;"/></svg>